<svg width="35" height="35" viewBox="0 0 35 35" fill="none" xmlns="http://www.w3.org/2000/svg">
<path d="M13.2649 3.49125H9.94129C9.58386 3.49125 9.25361 3.68203 9.07504 3.99165L7.33542 7.00794C7.23533 7.18149 7.08542 7.32097 6.90512 7.40831L3.74586 8.93868C3.40091 9.10578 3.18182 9.45536 3.18182 9.83865V13.3988C3.18182 13.5579 3.14389 13.7146 3.07119 13.856L1.25235 17.3943C1.09529 17.6998 1.10606 18.0646 1.28089 18.3603L3.29805 21.7725C3.40002 21.945 3.44782 22.1442 3.43524 22.3442L3.22152 25.7426C3.19727 26.1281 3.39725 26.4932 3.7352 26.6802L6.94379 28.4566C7.09964 28.5428 7.22962 28.6692 7.32027 28.8225L9.07331 31.788C9.25325 32.0924 9.58055 32.2791 9.93414 32.2791H13.283C13.455 32.2791 13.6242 32.3235 13.7741 32.408L17.1215 34.2955C17.4391 34.4746 17.8289 34.4666 18.1389 34.2748L21.1218 32.4288C21.2799 32.3309 21.4621 32.2791 21.648 32.2791H25.4172C25.7774 32.2791 26.1097 32.0854 26.2873 31.772L27.9658 28.8091C28.0479 28.6642 28.1649 28.5421 28.3061 28.4539L31.1661 26.6676C31.4586 26.4849 31.6364 26.1643 31.6364 25.8194V22.128C31.6364 21.9478 31.685 21.771 31.7773 21.6162L33.7051 18.3801C33.8876 18.0738 33.8932 17.6934 33.7197 17.3818L31.7928 13.9217C31.6911 13.7391 31.6492 13.5291 31.673 13.3214L32.0176 10.3133C32.0622 9.92355 31.8749 9.54368 31.5384 9.3419L28.3216 7.41265C28.1705 7.32201 28.046 7.19304 27.9608 7.0388L26.2853 4.00752C26.1093 3.68899 25.7741 3.49125 25.4101 3.49125H21.6671C21.4692 3.49125 21.2758 3.43258 21.1114 3.32264L18.167 1.35468C17.8434 1.13838 17.4237 1.12952 17.0912 1.33198L13.785 3.34535C13.6283 3.44078 13.4484 3.49125 13.2649 3.49125Z" fill="#90AFC5" stroke="#90AFC5"/>
<path d="M10 17.0385L15.9654 23.4044C16.3946 23.8624 17.1347 23.8164 17.5038 23.3087L25 13" stroke="white" stroke-width="3" stroke-linecap="round"/>
</svg>
