<svg width="1500" height="464" viewBox="0 0 1500 464" fill="none" xmlns="http://www.w3.org/2000/svg">
<rect width="1500" height="464" rx="10" fill="#333333"/>
<rect x="322" y="128" width="63" height="181" rx="8" fill="#6FCECD"/>
<rect x="410" y="128" width="63" height="181" rx="8" fill="white"/>
<rect x="491" y="135.904" width="63" height="181" rx="8" transform="rotate(-16.5102 491 135.904)" fill="white"/>
<rect x="324" y="320" width="279" height="25" rx="5" fill="white"/>
<path d="M782.298 162.831L773.113 166.698C772.397 164.371 771.43 162.24 770.213 160.307C769.031 158.373 767.599 156.726 765.916 155.365C764.269 153.969 762.389 152.895 760.276 152.143C758.164 151.355 755.854 150.961 753.348 150.961C750.662 150.961 748.191 151.409 745.936 152.304C743.715 153.163 741.71 154.363 739.92 155.902C738.165 157.442 736.626 159.232 735.301 161.273C733.976 163.314 732.866 165.499 731.971 167.826C731.076 170.118 730.413 172.499 729.983 174.97C729.554 177.44 729.339 179.857 729.339 182.221C729.339 185.98 729.769 189.722 730.628 193.446C731.523 197.17 732.92 200.518 734.817 203.49C736.751 206.462 739.24 208.879 742.283 210.741C745.327 212.567 749.015 213.48 753.348 213.48C755.639 213.48 757.806 213.104 759.847 212.353C761.888 211.565 763.732 210.508 765.379 209.184C767.062 207.823 768.53 206.229 769.783 204.403C771.036 202.577 772.039 200.608 772.791 198.495L782.083 202.201C780.722 205.603 778.86 208.593 776.497 211.171C774.134 213.713 771.43 215.826 768.387 217.509C765.379 219.192 762.138 220.445 758.665 221.269C755.228 222.128 751.754 222.558 748.245 222.558C744.45 222.558 740.797 222.092 737.288 221.161C733.815 220.23 730.574 218.905 727.566 217.187C724.559 215.468 721.819 213.391 719.349 210.956C716.914 208.521 714.819 205.818 713.064 202.846C711.346 199.874 710.003 196.651 709.036 193.178C708.105 189.669 707.64 186.016 707.64 182.221C707.64 178.425 708.105 174.791 709.036 171.317C710.003 167.808 711.346 164.568 713.064 161.596C714.819 158.588 716.914 155.867 719.349 153.432C721.819 150.997 724.559 148.92 727.566 147.201C730.574 145.482 733.815 144.158 737.288 143.227C740.797 142.296 744.45 141.83 748.245 141.83C751.897 141.83 755.46 142.26 758.934 143.119C762.443 143.979 765.701 145.285 768.709 147.04C771.717 148.759 774.384 150.943 776.712 153.593C779.075 156.207 780.937 159.286 782.298 162.831ZM890.396 183.993V185.014C890.325 188.021 890.003 191.137 889.43 194.359C888.893 197.582 888.123 200.805 887.12 204.027C886.118 207.25 884.918 210.437 883.521 213.588C882.125 216.739 880.549 219.747 878.795 222.611C877.076 225.512 875.214 228.215 873.209 230.722C871.204 233.264 869.091 235.502 866.871 237.436L858.868 232.816C860.121 230.704 861.249 228.394 862.252 225.888C863.29 223.417 864.221 220.821 865.045 218.1C865.868 215.378 866.567 212.585 867.14 209.721C867.748 206.856 868.25 204.009 868.644 201.181C869.037 198.352 869.324 195.577 869.503 192.855C869.718 190.098 869.825 187.484 869.825 185.014C869.825 183.08 869.807 180.896 869.771 178.461C869.771 175.99 869.628 173.484 869.342 170.941C869.091 168.399 868.661 165.928 868.053 163.529C867.444 161.094 866.531 158.928 865.313 157.03C864.132 155.132 862.592 153.611 860.694 152.465C858.832 151.319 856.505 150.746 853.712 150.746C851.241 150.746 849.111 151.176 847.32 152.035C845.566 152.859 844.062 153.987 842.809 155.419C841.591 156.815 840.606 158.445 839.854 160.307C839.138 162.169 838.565 164.138 838.136 166.215C837.742 168.256 837.473 170.333 837.33 172.445C837.223 174.522 837.169 176.492 837.169 178.354V193.339H860.318V202.201H837.169V221H815.846V181.684C815.846 176.062 816.741 170.834 818.531 166C820.322 161.166 822.846 156.977 826.104 153.432C829.399 149.851 833.338 147.058 837.921 145.053C842.54 143.012 847.678 141.991 853.336 141.991C857.167 141.991 860.748 142.546 864.078 143.656C867.444 144.73 870.506 146.234 873.263 148.168C876.02 150.066 878.473 152.34 880.621 154.989C882.805 157.603 884.614 160.468 886.046 163.583C887.514 166.698 888.624 169.993 889.376 173.466C890.128 176.939 890.468 180.448 890.396 183.993ZM989.687 197.367C989.687 200.697 989.257 203.633 988.397 206.176C987.574 208.718 986.392 210.92 984.853 212.782C983.349 214.644 981.558 216.202 979.481 217.455C977.405 218.708 975.131 219.711 972.66 220.463C970.225 221.215 967.629 221.752 964.872 222.074C962.151 222.396 959.376 222.558 956.547 222.558C952.823 222.558 949.385 222.271 946.234 221.698C943.083 221.161 940.111 220.302 937.318 219.12C934.561 217.903 931.894 216.345 929.315 214.447C926.773 212.549 924.231 210.24 921.688 207.519L932.646 196.4C933.648 198.871 935.027 201.163 936.781 203.275C938.536 205.352 940.451 207.143 942.528 208.646C944.641 210.15 946.825 211.332 949.081 212.191C951.337 213.051 953.467 213.48 955.473 213.48C957.836 213.48 960.056 213.319 962.133 212.997C964.21 212.639 966.018 212.066 967.558 211.278C969.097 210.491 970.297 209.452 971.156 208.163C972.051 206.838 972.499 205.191 972.499 203.222C972.499 201.718 972.159 200.429 971.479 199.354C970.798 198.28 969.903 197.367 968.793 196.615C967.719 195.827 966.483 195.165 965.087 194.628C963.69 194.091 962.258 193.643 960.79 193.285C959.358 192.891 957.943 192.551 956.547 192.265C955.15 191.942 953.915 191.62 952.841 191.298C950.728 190.689 948.526 190.045 946.234 189.364C943.943 188.648 941.687 187.842 939.467 186.947C937.247 186.052 935.134 185.032 933.129 183.886C931.16 182.704 929.423 181.326 927.919 179.75C926.415 178.139 925.215 176.295 924.32 174.218C923.425 172.105 922.978 169.688 922.978 166.967C922.978 163.708 923.371 160.826 924.159 158.319C924.983 155.777 926.129 153.575 927.597 151.713C929.065 149.851 930.801 148.293 932.807 147.04C934.812 145.751 937.014 144.73 939.413 143.979C941.812 143.191 944.354 142.636 947.04 142.313C949.761 141.955 952.536 141.776 955.365 141.776C959.232 141.776 962.742 142.134 965.893 142.851C969.079 143.567 972.016 144.587 974.701 145.912C977.387 147.237 979.84 148.83 982.06 150.692C984.315 152.519 986.428 154.56 988.397 156.815L977.44 167.934C976.581 165.355 975.382 163.028 973.842 160.951C972.338 158.874 970.655 157.102 968.793 155.634C966.931 154.13 964.979 152.984 962.938 152.196C960.897 151.373 958.928 150.961 957.03 150.961C954.56 150.961 952.286 151.14 950.209 151.498C948.132 151.82 946.342 152.375 944.838 153.163C943.37 153.915 942.224 154.953 941.4 156.278C940.577 157.567 940.165 159.179 940.165 161.112C940.165 162.652 940.469 163.959 941.078 165.033C941.687 166.107 942.493 167.021 943.495 167.772C944.534 168.524 945.697 169.151 946.986 169.652C948.275 170.118 949.6 170.53 950.961 170.888C952.357 171.246 953.718 171.568 955.043 171.854C956.404 172.105 957.639 172.392 958.749 172.714C960.897 173.323 963.153 173.967 965.517 174.647C967.88 175.328 970.207 176.133 972.499 177.064C974.791 177.96 976.975 178.998 979.052 180.18C981.129 181.361 982.955 182.776 984.53 184.423C986.106 186.034 987.359 187.914 988.29 190.062C989.221 192.175 989.687 194.61 989.687 197.367ZM1046.33 221H1025.01V143.656H1066.79C1070.41 143.656 1073.87 144.14 1077.16 145.106C1080.49 146.073 1083.43 147.541 1085.97 149.511C1088.51 151.444 1090.53 153.897 1092.04 156.869C1093.58 159.805 1094.35 163.261 1094.35 167.235C1094.35 169.742 1093.99 172.105 1093.27 174.325C1092.56 176.509 1091.55 178.515 1090.27 180.341C1089.01 182.167 1087.53 183.814 1085.81 185.282C1084.09 186.75 1082.21 187.986 1080.17 188.988C1078.13 189.991 1075.96 190.761 1073.67 191.298C1071.41 191.835 1069.12 192.104 1066.79 192.104H1046.33V221ZM1072.76 167.235C1072.76 162.258 1071.48 158.355 1068.94 155.526C1066.44 152.662 1062.64 151.229 1057.56 151.229H1046.33V184.799H1057.56C1060.28 184.799 1062.59 184.369 1064.48 183.51C1066.42 182.615 1067.99 181.379 1069.21 179.804C1070.43 178.228 1071.32 176.384 1071.9 174.271C1072.47 172.123 1072.76 169.778 1072.76 167.235Z" fill="white"/>
<path d="M679.101 299.42L678.921 301.25C678.361 301.49 677.681 301.7 676.881 301.88C676.081 302.06 675.271 302.19 674.451 302.27C673.631 302.37 672.901 302.42 672.261 302.42C670.641 302.42 669.141 302.15 667.761 301.61C666.381 301.05 665.171 300.28 664.131 299.3C663.111 298.32 662.311 297.17 661.731 295.85C661.151 294.51 660.861 293.06 660.861 291.5C660.861 289.94 661.151 288.5 661.731 287.18C662.311 285.84 663.111 284.68 664.131 283.7C665.171 282.72 666.381 281.96 667.761 281.42C669.141 280.86 670.641 280.58 672.261 280.58C672.921 280.58 673.661 280.63 674.481 280.73C675.301 280.83 676.101 280.97 676.881 281.15C677.661 281.31 678.321 281.5 678.861 281.72L678.711 283.4H678.531C677.791 282.72 676.861 282.2 675.741 281.84C674.621 281.48 673.461 281.3 672.261 281.3C670.461 281.3 668.871 281.73 667.491 282.59C666.131 283.43 665.061 284.62 664.281 286.16C663.521 287.68 663.141 289.46 663.141 291.5C663.141 293.56 663.521 295.35 664.281 296.87C665.061 298.39 666.131 299.58 667.491 300.44C668.851 301.28 670.441 301.7 672.261 301.7C673.621 301.7 674.881 301.48 676.041 301.04C677.221 300.6 678.181 300.06 678.921 299.42H679.101ZM689.009 291.5C689.009 289.96 689.279 288.53 689.819 287.21C690.379 285.87 691.149 284.71 692.129 283.73C693.129 282.73 694.289 281.96 695.609 281.42C696.949 280.86 698.389 280.58 699.929 280.58C701.469 280.58 702.899 280.86 704.219 281.42C705.559 281.96 706.719 282.73 707.699 283.73C708.699 284.71 709.469 285.87 710.009 287.21C710.569 288.53 710.849 289.96 710.849 291.5C710.849 293.04 710.569 294.48 710.009 295.82C709.469 297.14 708.699 298.3 707.699 299.3C706.719 300.28 705.559 301.05 704.219 301.61C702.899 302.15 701.469 302.42 699.929 302.42C698.389 302.42 696.949 302.15 695.609 301.61C694.289 301.05 693.129 300.28 692.129 299.3C691.149 298.3 690.379 297.14 689.819 295.82C689.279 294.48 689.009 293.04 689.009 291.5ZM691.289 291.5C691.289 293.54 691.649 295.33 692.369 296.87C693.089 298.39 694.099 299.58 695.399 300.44C696.699 301.28 698.209 301.7 699.929 301.7C701.649 301.7 703.159 301.28 704.459 300.44C705.759 299.58 706.769 298.38 707.489 296.84C708.209 295.3 708.569 293.52 708.569 291.5C708.569 289.48 708.209 287.71 707.489 286.19C706.769 284.65 705.759 283.45 704.459 282.59C703.159 281.73 701.649 281.3 699.929 281.3C698.209 281.3 696.699 281.73 695.399 282.59C694.119 283.43 693.109 284.62 692.369 286.16C691.649 287.68 691.289 289.46 691.289 291.5ZM722.69 302L723.44 280.58H723.8L738.89 298.82H739.07L738.41 281H740.45L739.7 302.42H739.34L724.25 284.18H724.07L724.73 302H722.69ZM758.608 302V281.6C758.308 281.6 757.688 281.66 756.748 281.78L750.868 282.53V281H768.388V282.53L762.508 281.78C761.568 281.66 760.948 281.6 760.648 281.6V302H758.608ZM779.261 302V281H788.411V282.47L783.161 281.78C782.241 281.66 781.621 281.6 781.301 281.6V290.75C781.561 290.75 782.181 290.72 783.161 290.66L788.081 290.36V291.74L783.161 291.44C782.181 291.38 781.561 291.35 781.301 291.35V301.4C781.661 301.4 782.291 301.34 783.191 301.22L788.501 300.53V302H779.261ZM800.339 302L801.089 280.58H801.449L816.539 298.82H816.719L816.059 281H818.099L817.349 302.42H816.989L801.899 284.18H801.719L802.379 302H800.339ZM836.257 302V281.6C835.957 281.6 835.337 281.66 834.397 281.78L828.517 282.53V281H846.037V282.53L840.157 281.78C839.217 281.66 838.597 281.6 838.297 281.6V302H836.257ZM867.876 302L875.946 281H877.806L885.876 302H883.686L879.966 292.16H873.156L870.066 302H867.876ZM876.156 282.56L873.366 291.44H879.696L876.336 282.56H876.156ZM896.742 281H900.762C902.882 281 904.522 281.45 905.682 282.35C906.862 283.23 907.452 284.47 907.452 286.07C907.452 287.31 907.082 288.34 906.342 289.16C905.622 289.98 904.572 290.53 903.192 290.81V290.99C904.512 291.25 905.592 291.87 906.432 292.85C907.272 293.83 907.902 295.04 908.322 296.48C908.702 297.8 909.072 298.83 909.432 299.57C909.812 300.29 910.222 300.81 910.662 301.13C911.122 301.45 911.662 301.68 912.282 301.82V302H911.052C910.172 302 909.442 301.84 908.862 301.52C908.302 301.2 907.822 300.66 907.422 299.9C907.022 299.14 906.642 298.09 906.282 296.75C905.702 294.69 904.932 293.23 903.972 292.37C903.012 291.51 901.842 291.08 900.462 291.08H900.282V290.54H900.462C903.682 290.54 905.292 289.06 905.292 286.1C905.292 283.18 903.782 281.72 900.762 281.72H898.782V302H896.742V281ZM938.144 299.42L937.964 301.25C937.404 301.49 936.724 301.7 935.924 301.88C935.124 302.06 934.314 302.19 933.494 302.27C932.674 302.37 931.944 302.42 931.304 302.42C929.684 302.42 928.184 302.15 926.804 301.61C925.424 301.05 924.214 300.28 923.174 299.3C922.154 298.32 921.354 297.17 920.774 295.85C920.194 294.51 919.904 293.06 919.904 291.5C919.904 289.94 920.194 288.5 920.774 287.18C921.354 285.84 922.154 284.68 923.174 283.7C924.214 282.72 925.424 281.96 926.804 281.42C928.184 280.86 929.684 280.58 931.304 280.58C931.964 280.58 932.704 280.63 933.524 280.73C934.344 280.83 935.144 280.97 935.924 281.15C936.704 281.31 937.364 281.5 937.904 281.72L937.754 283.4H937.574C936.834 282.72 935.904 282.2 934.784 281.84C933.664 281.48 932.504 281.3 931.304 281.3C929.504 281.3 927.914 281.73 926.534 282.59C925.174 283.43 924.104 284.62 923.324 286.16C922.564 287.68 922.184 289.46 922.184 291.5C922.184 293.56 922.564 295.35 923.324 296.87C924.104 298.39 925.174 299.58 926.534 300.44C927.894 301.28 929.484 301.7 931.304 301.7C932.664 301.7 933.924 301.48 935.084 301.04C936.264 300.6 937.224 300.06 937.964 299.42H938.144ZM950.138 302V281H952.178V290.72H964.778V281H966.818V302H964.778V291.44H952.178V302H950.138ZM980.63 302V281H982.67V302H980.63ZM1001.27 302V281.6C1000.97 281.6 1000.35 281.66 999.414 281.78L993.534 282.53V281H1011.05V282.53L1005.17 281.78C1004.23 281.66 1003.61 281.6 1003.31 281.6V302H1001.27ZM1021.93 302V281H1031.08V282.47L1025.83 281.78C1024.91 281.66 1024.29 281.6 1023.97 281.6V290.75C1024.23 290.75 1024.85 290.72 1025.83 290.66L1030.75 290.36V291.74L1025.83 291.44C1024.85 291.38 1024.23 291.35 1023.97 291.35V301.4C1024.33 301.4 1024.96 301.34 1025.86 301.22L1031.17 300.53V302H1021.93ZM1060.19 299.42L1060.01 301.25C1059.45 301.49 1058.77 301.7 1057.97 301.88C1057.17 302.06 1056.36 302.19 1055.54 302.27C1054.72 302.37 1053.99 302.42 1053.35 302.42C1051.73 302.42 1050.23 302.15 1048.85 301.61C1047.47 301.05 1046.26 300.28 1045.22 299.3C1044.2 298.32 1043.4 297.17 1042.82 295.85C1042.24 294.51 1041.95 293.06 1041.95 291.5C1041.95 289.94 1042.24 288.5 1042.82 287.18C1043.4 285.84 1044.2 284.68 1045.22 283.7C1046.26 282.72 1047.47 281.96 1048.85 281.42C1050.23 280.86 1051.73 280.58 1053.35 280.58C1054.01 280.58 1054.75 280.63 1055.57 280.73C1056.39 280.83 1057.19 280.97 1057.97 281.15C1058.75 281.31 1059.41 281.5 1059.95 281.72L1059.8 283.4H1059.62C1058.88 282.72 1057.95 282.2 1056.83 281.84C1055.71 281.48 1054.55 281.3 1053.35 281.3C1051.55 281.3 1049.96 281.73 1048.58 282.59C1047.22 283.43 1046.15 284.62 1045.37 286.16C1044.61 287.68 1044.23 289.46 1044.23 291.5C1044.23 293.56 1044.61 295.35 1045.37 296.87C1046.15 298.39 1047.22 299.58 1048.58 300.44C1049.94 301.28 1051.53 301.7 1053.35 301.7C1054.71 301.7 1055.97 301.48 1057.13 301.04C1058.31 300.6 1059.27 300.06 1060.01 299.42H1060.19ZM1076.99 302V281.6C1076.69 281.6 1076.07 281.66 1075.13 281.78L1069.25 282.53V281H1086.77V282.53L1080.89 281.78C1079.95 281.66 1079.33 281.6 1079.03 281.6V302H1076.99ZM1097.34 281H1099.38V293.66C1099.38 296.08 1099.97 297.97 1101.15 299.33C1102.35 300.67 1104.03 301.34 1106.19 301.34C1107.55 301.34 1108.73 301.08 1109.73 300.56C1110.75 300.02 1111.53 299.28 1112.07 298.34C1112.63 297.4 1112.89 296.32 1112.85 295.1L1112.34 281H1114.38L1113.87 295.1C1113.79 297.5 1113.07 299.32 1111.71 300.56C1110.37 301.8 1108.45 302.42 1105.95 302.42C1103.25 302.42 1101.14 301.64 1099.62 300.08C1098.1 298.5 1097.34 296.34 1097.34 293.6V281ZM1127.58 281H1131.6C1133.72 281 1135.36 281.45 1136.52 282.35C1137.7 283.23 1138.29 284.47 1138.29 286.07C1138.29 287.31 1137.92 288.34 1137.18 289.16C1136.46 289.98 1135.41 290.53 1134.03 290.81V290.99C1135.35 291.25 1136.43 291.87 1137.27 292.85C1138.11 293.83 1138.74 295.04 1139.16 296.48C1139.54 297.8 1139.91 298.83 1140.27 299.57C1140.65 300.29 1141.06 300.81 1141.5 301.13C1141.96 301.45 1142.5 301.68 1143.12 301.82V302H1141.89C1141.01 302 1140.28 301.84 1139.7 301.52C1139.14 301.2 1138.66 300.66 1138.26 299.9C1137.86 299.14 1137.48 298.09 1137.12 296.75C1136.54 294.69 1135.77 293.23 1134.81 292.37C1133.85 291.51 1132.68 291.08 1131.3 291.08H1131.12V290.54H1131.3C1134.52 290.54 1136.13 289.06 1136.13 286.1C1136.13 283.18 1134.62 281.72 1131.6 281.72H1129.62V302H1127.58V281ZM1152.83 302V281H1161.98V282.47L1156.73 281.78C1155.81 281.66 1155.19 281.6 1154.87 281.6V290.75C1155.13 290.75 1155.75 290.72 1156.73 290.66L1161.65 290.36V291.74L1156.73 291.44C1155.75 291.38 1155.13 291.35 1154.87 291.35V301.4C1155.23 301.4 1155.86 301.34 1156.76 301.22L1162.07 300.53V302H1152.83ZM726.2 336.34L726.38 334.54H726.56C727.34 335.22 728.22 335.75 729.2 336.13C730.18 336.51 731.15 336.7 732.11 336.7C733.47 336.7 734.57 336.33 735.41 335.59C736.25 334.83 736.67 333.82 736.67 332.56C736.67 331.86 736.51 331.21 736.19 330.61C735.89 330.01 735.38 329.4 734.66 328.78C733.96 328.16 732.99 327.49 731.75 326.77C730.89 326.27 730.07 325.75 729.29 325.21C728.51 324.65 727.87 324.01 727.37 323.29C726.87 322.55 726.62 321.67 726.62 320.65C726.62 319.13 727.17 317.91 728.27 316.99C729.37 316.05 730.82 315.58 732.62 315.58C733.42 315.58 734.28 315.67 735.2 315.85C736.12 316.01 736.83 316.22 737.33 316.48L737.18 318.16H737C735.86 316.92 734.4 316.3 732.62 316.3C731.34 316.3 730.31 316.63 729.53 317.29C728.75 317.93 728.36 318.8 728.36 319.9C728.36 320.72 728.57 321.43 728.99 322.03C729.43 322.61 729.99 323.14 730.67 323.62C731.35 324.08 732.08 324.53 732.86 324.97C733.76 325.49 734.63 326.04 735.47 326.62C736.33 327.2 737.03 327.9 737.57 328.72C738.13 329.52 738.41 330.53 738.41 331.75C738.41 332.87 738.15 333.86 737.63 334.72C737.11 335.56 736.37 336.22 735.41 336.7C734.47 337.18 733.37 337.42 732.11 337.42C731.31 337.42 730.37 337.32 729.29 337.12C728.21 336.92 727.18 336.66 726.2 336.34ZM748.819 326.5C748.819 324.96 749.089 323.53 749.629 322.21C750.189 320.87 750.959 319.71 751.939 318.73C752.939 317.73 754.099 316.96 755.419 316.42C756.759 315.86 758.199 315.58 759.739 315.58C761.279 315.58 762.709 315.86 764.029 316.42C765.369 316.96 766.529 317.73 767.509 318.73C768.509 319.71 769.279 320.87 769.819 322.21C770.379 323.53 770.659 324.96 770.659 326.5C770.659 328.04 770.379 329.48 769.819 330.82C769.279 332.14 768.509 333.3 767.509 334.3C766.529 335.28 765.369 336.05 764.029 336.61C762.709 337.15 761.279 337.42 759.739 337.42C758.199 337.42 756.759 337.15 755.419 336.61C754.099 336.05 752.939 335.28 751.939 334.3C750.959 333.3 750.189 332.14 749.629 330.82C749.089 329.48 748.819 328.04 748.819 326.5ZM751.099 326.5C751.099 328.54 751.459 330.33 752.179 331.87C752.899 333.39 753.909 334.58 755.209 335.44C756.509 336.28 758.019 336.7 759.739 336.7C761.459 336.7 762.969 336.28 764.269 335.44C765.569 334.58 766.579 333.38 767.299 331.84C768.019 330.3 768.379 328.52 768.379 326.5C768.379 324.48 768.019 322.71 767.299 321.19C766.579 319.65 765.569 318.45 764.269 317.59C762.969 316.73 761.459 316.3 759.739 316.3C758.019 316.3 756.509 316.73 755.209 317.59C753.929 318.43 752.919 319.62 752.179 321.16C751.459 322.68 751.099 324.46 751.099 326.5ZM782.95 316H784.99V336.4C785.37 336.4 785.97 336.34 786.79 336.22L791.77 335.47V337H782.95V316ZM801.892 316H803.932V328.66C803.932 331.08 804.522 332.97 805.702 334.33C806.902 335.67 808.582 336.34 810.742 336.34C812.102 336.34 813.282 336.08 814.282 335.56C815.302 335.02 816.082 334.28 816.622 333.34C817.182 332.4 817.442 331.32 817.402 330.1L816.892 316H818.932L818.422 330.1C818.342 332.5 817.622 334.32 816.262 335.56C814.922 336.8 813.002 337.42 810.502 337.42C807.802 337.42 805.692 336.64 804.172 335.08C802.652 333.5 801.892 331.34 801.892 328.6V316ZM836.928 337V316.6C836.628 316.6 836.008 316.66 835.068 316.78L829.188 317.53V316H846.708V317.53L840.828 316.78C839.888 316.66 839.268 316.6 838.968 316.6V337H836.928ZM857.581 337V316H859.621V337H857.581ZM871.924 326.5C871.924 324.96 872.194 323.53 872.734 322.21C873.294 320.87 874.064 319.71 875.044 318.73C876.044 317.73 877.204 316.96 878.524 316.42C879.864 315.86 881.304 315.58 882.844 315.58C884.384 315.58 885.814 315.86 887.134 316.42C888.474 316.96 889.634 317.73 890.614 318.73C891.614 319.71 892.384 320.87 892.924 322.21C893.484 323.53 893.764 324.96 893.764 326.5C893.764 328.04 893.484 329.48 892.924 330.82C892.384 332.14 891.614 333.3 890.614 334.3C889.634 335.28 888.474 336.05 887.134 336.61C885.814 337.15 884.384 337.42 882.844 337.42C881.304 337.42 879.864 337.15 878.524 336.61C877.204 336.05 876.044 335.28 875.044 334.3C874.064 333.3 873.294 332.14 872.734 330.82C872.194 329.48 871.924 328.04 871.924 326.5ZM874.204 326.5C874.204 328.54 874.564 330.33 875.284 331.87C876.004 333.39 877.014 334.58 878.314 335.44C879.614 336.28 881.124 336.7 882.844 336.7C884.564 336.7 886.074 336.28 887.374 335.44C888.674 334.58 889.684 333.38 890.404 331.84C891.124 330.3 891.484 328.52 891.484 326.5C891.484 324.48 891.124 322.71 890.404 321.19C889.684 319.65 888.674 318.45 887.374 317.59C886.074 316.73 884.564 316.3 882.844 316.3C881.124 316.3 879.614 316.73 878.314 317.59C877.034 318.43 876.024 319.62 875.284 321.16C874.564 322.68 874.204 324.46 874.204 326.5ZM905.605 337L906.355 315.58H906.715L921.805 333.82H921.985L921.325 316H923.365L922.615 337.42H922.255L907.165 319.18H906.985L907.645 337H905.605ZM950.809 337V316H954.559C956.979 316 958.859 316.52 960.199 317.56C961.539 318.58 962.209 320.01 962.209 321.85C962.209 323.69 961.539 325.13 960.199 326.17C958.859 327.19 956.979 327.7 954.559 327.7H952.849V337H950.809ZM954.559 316.72H952.849V326.98H954.559C958.219 326.98 960.049 325.27 960.049 321.85C960.049 318.43 958.219 316.72 954.559 316.72ZM973.919 316H977.939C980.059 316 981.699 316.45 982.859 317.35C984.039 318.23 984.629 319.47 984.629 321.07C984.629 322.31 984.259 323.34 983.519 324.16C982.799 324.98 981.749 325.53 980.369 325.81V325.99C981.689 326.25 982.769 326.87 983.609 327.85C984.449 328.83 985.079 330.04 985.499 331.48C985.879 332.8 986.249 333.83 986.609 334.57C986.989 335.29 987.399 335.81 987.839 336.13C988.299 336.45 988.839 336.68 989.459 336.82V337H988.229C987.349 337 986.619 336.84 986.039 336.52C985.479 336.2 984.999 335.66 984.599 334.9C984.199 334.14 983.819 333.09 983.459 331.75C982.879 329.69 982.109 328.23 981.149 327.37C980.189 326.51 979.019 326.08 977.639 326.08H977.459V325.54H977.639C980.859 325.54 982.469 324.06 982.469 321.1C982.469 318.18 980.959 316.72 977.939 316.72H975.959V337H973.919V316ZM997.081 326.5C997.081 324.96 997.351 323.53 997.891 322.21C998.451 320.87 999.221 319.71 1000.2 318.73C1001.2 317.73 1002.36 316.96 1003.68 316.42C1005.02 315.86 1006.46 315.58 1008 315.58C1009.54 315.58 1010.97 315.86 1012.29 316.42C1013.63 316.96 1014.79 317.73 1015.77 318.73C1016.77 319.71 1017.54 320.87 1018.08 322.21C1018.64 323.53 1018.92 324.96 1018.92 326.5C1018.92 328.04 1018.64 329.48 1018.08 330.82C1017.54 332.14 1016.77 333.3 1015.77 334.3C1014.79 335.28 1013.63 336.05 1012.29 336.61C1010.97 337.15 1009.54 337.42 1008 337.42C1006.46 337.42 1005.02 337.15 1003.68 336.61C1002.36 336.05 1001.2 335.28 1000.2 334.3C999.221 333.3 998.451 332.14 997.891 330.82C997.351 329.48 997.081 328.04 997.081 326.5ZM999.361 326.5C999.361 328.54 999.721 330.33 1000.44 331.87C1001.16 333.39 1002.17 334.58 1003.47 335.44C1004.77 336.28 1006.28 336.7 1008 336.7C1009.72 336.7 1011.23 336.28 1012.53 335.44C1013.83 334.58 1014.84 333.38 1015.56 331.84C1016.28 330.3 1016.64 328.52 1016.64 326.5C1016.64 324.48 1016.28 322.71 1015.56 321.19C1014.84 319.65 1013.83 318.45 1012.53 317.59C1011.23 316.73 1009.72 316.3 1008 316.3C1006.28 316.3 1004.77 316.73 1003.47 317.59C1002.19 318.43 1001.18 319.62 1000.44 321.16C999.721 322.68 999.361 324.46 999.361 326.5ZM1031.21 335.14V316H1033.25V334.96C1033.25 337.48 1032.9 339.44 1032.2 340.84C1031.5 342.24 1030.43 343.26 1028.99 343.9L1028.9 343.75C1029.7 343.19 1030.28 342.24 1030.64 340.9C1031.02 339.58 1031.21 337.66 1031.21 335.14ZM1047.06 337V316H1056.21V317.47L1050.96 316.78C1050.04 316.66 1049.42 316.6 1049.1 316.6V325.75C1049.36 325.75 1049.98 325.72 1050.96 325.66L1055.88 325.36V326.74L1050.96 326.44C1049.98 326.38 1049.36 326.35 1049.1 326.35V336.4C1049.46 336.4 1050.09 336.34 1050.99 336.22L1056.3 335.53V337H1047.06ZM1085.32 334.42L1085.14 336.25C1084.58 336.49 1083.9 336.7 1083.1 336.88C1082.3 337.06 1081.49 337.19 1080.67 337.27C1079.85 337.37 1079.12 337.42 1078.48 337.42C1076.86 337.42 1075.36 337.15 1073.98 336.61C1072.6 336.05 1071.39 335.28 1070.35 334.3C1069.33 333.32 1068.53 332.17 1067.95 330.85C1067.37 329.51 1067.08 328.06 1067.08 326.5C1067.08 324.94 1067.37 323.5 1067.95 322.18C1068.53 320.84 1069.33 319.68 1070.35 318.7C1071.39 317.72 1072.6 316.96 1073.98 316.42C1075.36 315.86 1076.86 315.58 1078.48 315.58C1079.14 315.58 1079.88 315.63 1080.7 315.73C1081.52 315.83 1082.32 315.97 1083.1 316.15C1083.88 316.31 1084.54 316.5 1085.08 316.72L1084.93 318.4H1084.75C1084.01 317.72 1083.08 317.2 1081.96 316.84C1080.84 316.48 1079.68 316.3 1078.48 316.3C1076.68 316.3 1075.09 316.73 1073.71 317.59C1072.35 318.43 1071.28 319.62 1070.5 321.16C1069.74 322.68 1069.36 324.46 1069.36 326.5C1069.36 328.56 1069.74 330.35 1070.5 331.87C1071.28 333.39 1072.35 334.58 1073.71 335.44C1075.07 336.28 1076.66 336.7 1078.48 336.7C1079.84 336.7 1081.1 336.48 1082.26 336.04C1083.44 335.6 1084.4 335.06 1085.14 334.42H1085.32ZM1102.12 337V316.6C1101.82 316.6 1101.2 316.66 1100.26 316.78L1094.38 317.53V316H1111.9V317.53L1106.02 316.78C1105.08 316.66 1104.46 316.6 1104.16 316.6V337H1102.12Z" fill="white"/>
</svg>
