<svg width="55" height="25" viewBox="0 0 55 25" fill="none" xmlns="http://www.w3.org/2000/svg">
<path d="M3.33588 24.2C2.47188 24.2 1.82388 23.936 1.39188 23.408C0.975875 22.88 0.767875 22.224 0.767875 21.44C0.767875 21.072 0.807875 20.712 0.887875 20.36C0.967875 20.008 1.07188 19.656 1.19988 19.304H1.12788L0.791875 20.336H0.743875C0.711875 20.336 0.695875 20.328 0.695875 20.312V20.288C0.695875 20.064 0.783875 19.76 0.959875 19.376C1.11988 18.976 1.32788 18.552 1.58388 18.104C1.83988 17.656 2.08788 17.248 2.32788 16.88C2.58388 16.496 2.78388 16.216 2.92788 16.04L2.95188 16.16C3.11188 15.968 3.33588 15.712 3.62388 15.392C3.92788 15.056 4.22388 14.712 4.51188 14.36C4.81588 14.008 5.02388 13.728 5.13588 13.52C5.42388 12.992 5.64788 12.704 5.80788 12.656C5.96788 12.608 6.01588 12.736 5.95188 13.04C5.88788 13.344 5.64788 13.768 5.23188 14.312C4.87988 14.776 4.50388 15.312 4.10388 15.92C3.70388 16.512 3.32788 17.136 2.97588 17.792C2.62388 18.448 2.31988 19.112 2.06388 19.784C1.82388 20.44 1.67988 21.056 1.63188 21.632V21.848C1.63188 22.6 1.86388 23.112 2.32788 23.384C2.79188 23.672 3.35988 23.816 4.03188 23.816C4.68788 23.816 5.34388 23.64 5.99988 23.288C6.67188 22.92 7.34388 22.448 8.01588 21.872C8.68788 21.312 9.34388 20.672 9.98388 19.952C10.3039 19.584 10.6159 19.216 10.9199 18.848C11.2239 18.48 11.5199 18.112 11.8079 17.744C12.1119 17.328 12.4319 16.88 12.7679 16.4C13.1199 15.92 13.4559 15.456 13.7759 15.008C14.0959 14.544 14.3599 14.168 14.5679 13.88V13.832C14.5519 13.832 14.5439 13.824 14.5439 13.808V13.76C14.5439 13.68 14.6319 13.472 14.8079 13.136C14.9839 12.8 15.1839 12.432 15.4079 12.032C15.6479 11.632 15.8639 11.28 16.0559 10.976C16.2479 10.656 16.3519 10.488 16.3679 10.472C16.7199 10.008 17.0639 9.536 17.3999 9.056C17.7359 8.56 18.0399 8.056 18.3119 7.544C18.4399 7.288 18.5599 7.032 18.6719 6.776C18.7999 6.52 18.9119 6.264 19.0079 6.008C19.1039 5.736 19.1999 5.472 19.2959 5.216C19.3919 4.96 19.4959 4.704 19.6079 4.448C19.6879 4.272 19.7839 4.008 19.8959 3.656C19.9599 3.48 20.0239 3.312 20.0879 3.152C20.1519 2.976 20.2159 2.8 20.2799 2.624C20.1199 2.608 19.9599 2.6 19.7999 2.6C19.6399 2.584 19.4719 2.584 19.2959 2.6C19.1359 2.616 18.9759 2.616 18.8159 2.6C18.6559 2.584 18.5039 2.544 18.3599 2.48C18.2639 2.448 18.1999 2.408 18.1679 2.36C18.1519 2.344 18.1279 2.328 18.0959 2.312C18.0639 2.28 18.0319 2.248 17.9999 2.216C17.8719 2.12 17.8159 2.096 17.8319 2.144C17.8479 2.192 17.8799 2.256 17.9279 2.336C17.8959 2.416 17.8399 2.456 17.7599 2.456L17.8079 2.336C17.7119 2.304 17.5679 2.288 17.3759 2.288C17.1839 2.288 17.0399 2.304 16.9439 2.336C16.9759 2.368 16.9759 2.408 16.9439 2.456C16.9279 2.488 16.8959 2.496 16.8479 2.48C16.7679 2.448 16.6399 2.408 16.4639 2.36C16.3039 2.296 16.1919 2.28 16.1279 2.312C16.1599 2.344 16.1679 2.384 16.1519 2.432C16.1519 2.464 16.1119 2.464 16.0319 2.432L15.4799 2.264L15.4079 2.144C15.3919 2.128 15.3359 2.12 15.2399 2.12C15.1599 2.12 15.1199 2.16 15.1199 2.24C15.1039 2.256 15.1119 2.272 15.1439 2.288C15.1759 2.304 15.2079 2.312 15.2399 2.312C15.2719 2.376 15.2959 2.424 15.3119 2.456C15.3599 2.504 15.3359 2.512 15.2399 2.48C15.1279 2.416 14.9839 2.36 14.8079 2.312C14.6319 2.264 14.5199 2.304 14.4719 2.432C14.0559 2.416 13.5439 2.504 12.9359 2.696C12.3439 2.888 11.7519 3.12 11.1599 3.392C10.5679 3.648 10.0799 3.888 9.69588 4.112C9.71188 4.128 9.71988 4.152 9.71988 4.184L9.38388 4.448V4.328L8.61588 4.976L8.35188 5.216H8.37588L8.61588 4.976L8.59188 5.024C8.46388 5.152 8.31988 5.312 8.15988 5.504C7.99988 5.696 7.87988 5.888 7.79988 6.08C7.73588 6.336 7.72788 6.608 7.77588 6.896C7.83988 7.168 7.85588 7.368 7.82388 7.496L7.79988 7.52H7.75188C7.59188 7.456 7.47988 7.36 7.41588 7.232C7.35188 7.088 7.28788 6.936 7.22388 6.776C7.11188 6.488 7.03188 6.264 6.98388 6.104C6.95188 5.928 6.95188 5.76 6.98388 5.6C7.01588 5.424 7.07988 5.184 7.17588 4.88C7.23988 4.864 7.30388 4.808 7.36788 4.712C7.36788 4.712 7.36788 4.704 7.36788 4.688C7.38388 4.672 7.39988 4.648 7.41588 4.616V4.544L7.27188 4.664L7.48788 4.424C7.51988 4.392 7.54388 4.352 7.55988 4.304C7.59188 4.256 7.62388 4.216 7.65588 4.184H7.67988C7.71188 4.216 7.77588 4.168 7.87188 4.04C7.91988 3.976 7.95988 3.928 7.99188 3.896C8.02388 3.864 8.04788 3.84 8.06388 3.824L7.99188 3.896C7.95988 3.928 7.93588 3.936 7.91988 3.92L8.49588 3.368H8.51988C8.82388 3.144 9.11188 2.992 9.38388 2.912C9.67188 2.832 9.93588 2.736 10.1759 2.624C10.4159 2.512 10.6239 2.304 10.7999 2C10.8799 1.936 10.9359 1.864 10.9679 1.784C10.9679 1.72 11.0239 1.712 11.1359 1.76C11.2159 1.744 11.2959 1.72 11.3759 1.688C11.4719 1.656 11.5599 1.624 11.6399 1.592C11.7199 1.56 11.7999 1.528 11.8799 1.496C11.9599 1.464 12.0399 1.44 12.1199 1.424C12.1839 1.424 12.1679 1.44 12.0719 1.472C11.9759 1.536 11.9199 1.592 11.9039 1.64C12.5759 1.4 13.2639 1.224 13.9679 1.112C14.6719 0.999999 15.3839 0.927999 16.1039 0.895998C16.1359 0.895998 16.2479 0.903999 16.4399 0.92C16.6319 0.92 16.8159 0.927999 16.9919 0.943999C17.1839 0.943999 17.2799 0.959999 17.2799 0.991999C17.5359 1.024 17.7759 1.072 17.9999 1.136C18.2239 1.184 18.3359 1.184 18.3359 1.136C18.6559 1.264 18.9519 1.32 19.2239 1.304C19.4959 1.272 19.7839 1.312 20.0879 1.424C20.2159 1.44 20.2799 1.448 20.2799 1.448C20.2959 1.432 20.3599 1.44 20.4719 1.472C20.4879 1.488 20.5279 1.496 20.5919 1.496L20.7839 1.568C20.8319 1.472 20.8799 1.4 20.9279 1.352C21.0719 1.176 21.2959 1.104 21.5999 1.136C21.9199 1.152 22.2079 1.248 22.4639 1.424C22.7199 1.584 22.8479 1.8 22.8479 2.072L22.7759 2.24L23.2319 2.432C23.4559 2.512 23.6479 2.656 23.8079 2.864C23.9839 3.056 24.0079 3.32 23.8799 3.656C23.8799 3.688 23.8399 3.776 23.7599 3.92C23.6959 4.048 23.6479 4.104 23.6159 4.088C23.5519 4.056 23.5039 3.928 23.4719 3.704C23.4399 3.48 23.3839 3.36 23.3039 3.344C23.2879 3.328 23.2719 3.328 23.2559 3.344C23.2399 3.36 23.2159 3.368 23.1839 3.368L23.0159 3.296C22.9199 3.264 22.8159 3.232 22.7039 3.2C22.5919 3.168 22.4719 3.136 22.3439 3.104C22.2319 3.36 22.1439 3.528 22.0799 3.608C22.0799 3.752 22.0719 3.984 22.0559 4.304C22.0559 4.608 22.0399 4.944 22.0079 5.312C21.9759 5.664 21.9359 5.984 21.8879 6.272C21.8399 6.56 21.7759 6.752 21.6959 6.848L21.8639 7.4H21.7919L21.5279 7.616C21.3679 7.728 21.2879 7.808 21.2879 7.856C21.2879 7.904 21.3199 7.944 21.3839 7.976C21.4639 8.008 21.5199 8.024 21.5519 8.024C21.5359 8.04 21.5279 8.072 21.5279 8.12C21.5279 8.152 21.5199 8.2 21.5039 8.264C21.4879 8.376 21.4479 8.448 21.3839 8.48L21.2399 8.36C21.2719 8.456 21.2879 8.536 21.2879 8.6V8.84C21.2879 8.92 21.2719 9.024 21.2399 9.152C21.2079 9.264 21.1759 9.36 21.1439 9.44L21.1919 9.656L20.9039 10.136L21.1439 10.688C20.9199 10.96 20.8079 11.256 20.8079 11.576C20.8079 11.656 20.8079 11.744 20.8079 11.84C20.8239 11.92 20.8399 12 20.8559 12.08C20.8719 12.16 20.8799 12.248 20.8799 12.344C20.8799 12.44 20.8799 12.528 20.8799 12.608C20.8799 13.168 20.7039 13.624 20.3519 13.976L20.3039 13.952L20.2559 14C20.2719 14.032 20.3439 14.104 20.4719 14.216C20.6159 14.328 20.7119 14.4 20.7599 14.432C20.7119 14.592 20.6799 14.752 20.6639 14.912C20.6479 15.056 20.6399 15.216 20.6399 15.392C20.6399 16.384 20.7119 17.088 20.8559 17.504C20.9999 17.92 21.1759 18.16 21.3839 18.224C21.6079 18.272 21.8479 18.184 22.1039 17.96C22.2799 17.816 22.4799 17.592 22.7039 17.288C22.9279 16.968 23.1279 16.656 23.3039 16.352C23.4799 16.048 23.5519 15.832 23.5199 15.704L23.6879 15.752C23.6879 15.576 23.7759 15.36 23.9519 15.104C24.1279 14.848 24.2719 14.656 24.3839 14.528V14.456C24.4159 14.424 24.4559 14.352 24.5039 14.24C24.5199 14.192 24.5359 14.16 24.5519 14.144C24.5679 14.112 24.5839 14.088 24.5999 14.072C24.5999 14.056 24.6079 14.04 24.6239 14.024L24.6719 13.952L24.7199 13.856C24.7359 13.856 24.7439 13.864 24.7439 13.88C24.7759 13.848 24.8079 13.808 24.8399 13.76C24.8719 13.712 24.8959 13.664 24.9119 13.616C24.9439 13.536 24.9839 13.456 25.0319 13.376V13.328L25.1039 13.304C25.1199 13.272 25.1439 13.224 25.1759 13.16C25.2079 13.096 25.2399 13.024 25.2719 12.944C25.3519 12.768 25.4239 12.672 25.4879 12.656C25.5839 12.512 25.6799 12.376 25.7759 12.248C25.8879 12.12 25.9519 11.984 25.9679 11.84C26.1119 11.712 26.2239 11.528 26.3039 11.288C26.3839 11.048 26.5039 10.896 26.6639 10.832C26.6959 10.768 26.7359 10.712 26.7839 10.664C26.8319 10.616 26.8719 10.56 26.9039 10.496C26.9359 10.448 26.9679 10.4 26.9999 10.352C27.0479 10.304 27.0879 10.248 27.1199 10.184V10.112C27.1359 10.08 27.1519 10.056 27.1679 10.04C27.1839 10.008 27.1999 9.976 27.2159 9.944L27.3119 9.8H27.3839L27.4799 9.656L27.5519 9.512L27.5039 9.488H27.5759C27.6399 9.344 27.7359 9.192 27.8639 9.032C27.9279 8.968 27.9839 8.904 28.0319 8.84C28.0799 8.76 28.1359 8.688 28.1999 8.624L28.2239 8.552V8.6C28.2879 8.504 28.3519 8.416 28.4159 8.336C28.4799 8.24 28.5519 8.152 28.6319 8.072L28.5599 8.048C28.5599 7.952 28.6239 7.808 28.7519 7.616C28.8799 7.408 28.9759 7.272 29.0399 7.208C29.0559 7.176 29.1279 7.048 29.2559 6.824C29.3999 6.584 29.5439 6.352 29.6879 6.128C29.8479 5.904 29.9439 5.792 29.9759 5.792C30.0399 5.792 30.0719 5.816 30.0719 5.864C30.0719 5.88 30.0639 5.888 30.0479 5.888C29.9039 6.368 29.6799 6.864 29.3759 7.376C29.0719 7.888 28.7679 8.344 28.4639 8.744V8.864L28.3919 8.888V8.864L28.1999 9.104V9.176C28.1359 9.272 28.0879 9.336 28.0559 9.368L27.9119 9.584H27.9359L27.9599 9.656C27.8959 9.72 27.8399 9.784 27.7919 9.848C27.7599 9.912 27.7279 9.976 27.6959 10.04L27.4559 10.424L27.4319 10.352L27.2879 10.376V10.448L27.2159 10.472L27.2399 10.592L27.3119 10.52L27.4079 10.592C27.4079 10.672 27.3759 10.744 27.3119 10.808L27.2639 10.76L27.2879 10.88C27.1919 11.072 27.0719 11.256 26.9279 11.432C26.7839 11.608 26.6319 11.768 26.4719 11.912L26.5439 12.104L26.4719 12.176L26.2559 12.224V12.296L26.3279 12.344L26.1839 12.44V12.416C26.1519 12.48 26.1359 12.528 26.1359 12.56L26.0639 12.728C26.0319 12.76 25.9839 12.808 25.9199 12.872C25.8559 12.92 25.7999 12.952 25.7519 12.968L25.7279 13.112L25.4639 13.808C25.2079 14.08 25.0159 14.312 24.8879 14.504C24.7599 14.68 24.6319 14.952 24.5039 15.32L24.4799 15.344H24.4319C24.3999 15.344 24.3599 15.344 24.3119 15.344C24.2799 15.328 24.2399 15.312 24.1919 15.296L24.1679 15.344C24.2639 15.408 24.3199 15.464 24.3359 15.512L24.3119 15.56C24.1039 15.672 23.9999 15.824 23.9999 16.016C23.9999 16.048 23.9999 16.088 23.9999 16.136C24.0159 16.184 24.0319 16.24 24.0479 16.304L23.6399 16.376L23.2559 17.408H23.2319C23.2159 17.424 23.1999 17.432 23.1839 17.432C23.1519 17.448 23.1199 17.464 23.0879 17.48C23.0559 17.496 23.0239 17.512 22.9919 17.528C22.9599 17.544 22.9279 17.568 22.8959 17.6C22.8639 17.616 22.8319 17.632 22.7999 17.648C22.6399 17.744 22.5119 17.904 22.4159 18.128C22.3199 18.336 22.1919 18.536 22.0319 18.728C21.8879 18.92 21.6239 19.016 21.2399 19.016C20.7599 19.016 20.3439 18.856 19.9919 18.536C19.6559 18.216 19.3919 17.816 19.1999 17.336C19.0239 16.856 18.9359 16.392 18.9359 15.944C18.9359 15.768 18.9439 15.6 18.9599 15.44C18.9759 15.264 18.9999 15.096 19.0319 14.936C19.0639 14.776 19.0879 14.616 19.1039 14.456C19.1199 14.28 19.1359 14.112 19.1519 13.952V13.352C19.2319 13.272 19.2719 13.2 19.2719 13.136C19.2719 13.136 19.2559 13.088 19.2239 12.992C19.2079 12.96 19.1919 12.928 19.1759 12.896C19.1759 12.864 19.1759 12.832 19.1759 12.8C19.2559 12.8 19.3199 12.76 19.3679 12.68C19.3839 12.648 19.3999 12.616 19.4159 12.584C19.4319 12.552 19.4479 12.528 19.4639 12.512V12.44C19.4639 12.344 19.4559 12.288 19.4399 12.272C19.4079 12.24 19.3839 12.2 19.3679 12.152C19.3999 12.12 19.4319 12.104 19.4639 12.104C19.4799 12.12 19.5119 12.128 19.5599 12.128L19.6559 12.104C19.6239 12.008 19.5919 11.944 19.5599 11.912C19.5119 11.864 19.4879 11.76 19.4879 11.6C19.4879 11.44 19.5119 11.288 19.5599 11.144C19.6079 11 19.6639 10.864 19.7279 10.736L19.5599 10.256C19.6079 10.192 19.6479 10.04 19.6799 9.8C19.7279 9.544 19.7599 9.264 19.7759 8.96C19.8079 8.64 19.8239 8.352 19.8239 8.096C19.8399 7.824 19.8479 7.64 19.8479 7.544V7.28C19.4319 8 19.0079 8.704 18.5759 9.392C18.1599 10.08 17.7199 10.76 17.2559 11.432C17.2079 11.512 17.1119 11.64 16.9679 11.816C16.8399 11.976 16.7199 12.136 16.6079 12.296C16.4959 12.456 16.4399 12.568 16.4399 12.632C16.4399 12.696 16.4799 12.728 16.5599 12.728V12.752C16.4959 12.864 16.3999 12.984 16.2719 13.112C16.2079 13.176 16.1519 13.24 16.1039 13.304C16.0559 13.368 16.0079 13.432 15.9599 13.496C15.8159 13.656 15.6399 13.896 15.4319 14.216C15.2239 14.52 15.0159 14.832 14.8079 15.152C14.6159 15.456 14.4479 15.704 14.3039 15.896L13.9199 16.4C13.8559 16.48 13.7919 16.568 13.7279 16.664C13.6799 16.76 13.6239 16.856 13.5599 16.952C13.4959 17.064 13.4159 17.192 13.3199 17.336C13.2239 17.48 13.0959 17.64 12.9359 17.816C12.6319 18.2 12.2639 18.616 11.8319 19.064C11.3999 19.512 10.9439 19.976 10.4639 20.456C10.2079 20.68 9.95988 20.896 9.71988 21.104C9.49588 21.328 9.27188 21.536 9.04788 21.728C8.59988 22.112 8.18388 22.424 7.79988 22.664C7.43188 22.92 7.14388 23.056 6.93588 23.072C6.85588 23.152 6.75188 23.224 6.62388 23.288C6.51188 23.352 6.40788 23.408 6.31188 23.456C5.79988 23.728 5.31988 23.92 4.87188 24.032C4.42388 24.144 3.91188 24.2 3.33588 24.2ZM30.9839 19.712C30.6639 19.712 30.3919 19.632 30.1679 19.472C29.9599 19.296 29.7519 19.104 29.5439 18.896C29.5439 18.848 29.5199 18.784 29.4719 18.704C29.4239 18.608 29.3839 18.544 29.3519 18.512C29.1759 18.24 29.0559 18.024 28.9919 17.864C28.9279 17.688 28.8799 17.504 28.8479 17.312C28.8319 17.12 28.7839 16.872 28.7039 16.568C28.6719 16.52 28.6719 16.456 28.7039 16.376C28.7039 16.312 28.7199 16.296 28.7519 16.328C28.7519 16.008 28.7359 15.712 28.7039 15.44C28.6879 15.168 28.6639 14.872 28.6319 14.552C28.6159 14.488 28.6079 14.432 28.6079 14.384C28.6079 14.336 28.5999 14.288 28.5839 14.24C28.5679 14.176 28.5599 14.072 28.5599 13.928C28.5599 13.88 28.5679 13.8 28.5839 13.688C28.5999 13.576 28.6399 13.512 28.7039 13.496L28.6319 13.424L28.5839 13.352C28.6159 13.32 28.6399 13.272 28.6559 13.208C28.6559 13.144 28.6879 13.104 28.7519 13.088L28.6799 12.992L28.7039 12.968C28.7039 12.872 28.7039 12.776 28.7039 12.68C28.7199 12.584 28.7359 12.488 28.7519 12.392C28.7679 12.312 28.7759 12.224 28.7759 12.128C28.7919 12.032 28.7999 11.944 28.7999 11.864C28.7999 11.832 28.7919 11.784 28.7759 11.72C28.7759 11.656 28.7679 11.584 28.7519 11.504H28.8239L28.8479 11.552L28.9439 11.48L28.8959 11.144L28.9199 11.096L28.9439 11.168H28.9919L28.8239 10.856L29.1359 10.76C29.1199 10.68 29.0719 10.632 28.9919 10.616L29.0399 10.592L29.7119 8.024L29.6879 7.952L29.4719 8.024C29.4719 7.992 29.5039 7.88 29.5679 7.688C29.6319 7.48 29.7039 7.256 29.7839 7.016C29.8799 6.776 29.9679 6.56 30.0479 6.368C30.1279 6.176 30.1759 6.072 30.1919 6.056C30.1919 5.784 30.2639 5.504 30.4079 5.216C30.5679 4.896 30.6799 4.616 30.7439 4.376L30.7919 4.352L30.6959 4.184L30.9599 3.872V3.824L30.6479 3.92L30.6239 3.896L30.6719 3.872L31.1279 2.984C31.2399 2.792 31.2879 2.6 31.2719 2.408C31.2559 2.216 31.2639 2.048 31.2959 1.904C31.3279 1.744 31.4639 1.632 31.7039 1.568L31.7279 1.52H31.7759V1.472C31.8239 1.456 31.9439 1.448 32.1359 1.448C32.3279 1.448 32.5999 1.472 32.9519 1.52C33.3199 1.568 33.6479 1.656 33.9359 1.784C34.2399 1.896 34.3919 2.056 34.3919 2.264C34.3919 2.456 34.3119 2.696 34.1519 2.984C33.9919 3.256 33.7999 3.544 33.5759 3.848C33.3679 4.152 33.1599 4.448 32.9519 4.736C32.7599 5.008 32.6239 5.248 32.5439 5.456L32.3519 5.984L32.3039 6.008L32.3279 5.864L32.2319 5.888L32.0879 6.128L32.1599 6.152L32.2079 6.104L32.2559 6.152C32.1919 6.216 32.0959 6.328 31.9679 6.488C31.8559 6.632 31.7999 6.744 31.7999 6.824L31.8719 6.872L31.8479 6.824L31.9679 6.728C31.9679 6.92 31.9519 7.112 31.9199 7.304C31.8879 7.496 31.8239 7.68 31.7279 7.856L31.4879 7.808C31.4879 7.952 31.4479 8.04 31.3679 8.072V8.048L31.2959 7.976L31.3439 7.952L31.5599 7.4L31.6079 7.376L31.4159 7.184C31.4639 7.104 31.5039 7.016 31.5359 6.92H31.4399C31.4239 7.016 31.3919 7.112 31.3439 7.208C31.3119 7.304 31.2799 7.4 31.2479 7.496C31.2159 7.608 31.1839 7.712 31.1519 7.808C31.1359 7.904 31.1279 8.008 31.1279 8.12C31.1279 8.232 31.1359 8.304 31.1519 8.336L31.0079 8.312V8.36L31.1279 8.48C31.0959 8.496 31.0479 8.52 30.9839 8.552C30.9359 8.584 30.9039 8.616 30.8879 8.648L30.9839 8.672V8.624H31.0319C31.0159 8.64 31.0079 8.672 31.0079 8.72C31.0079 8.816 31.0239 8.912 31.0559 9.008C31.0719 9.056 31.0799 9.104 31.0799 9.152C31.0959 9.2 31.1039 9.256 31.1039 9.32C31.1039 9.464 31.0399 9.552 30.9119 9.584C30.9279 9.68 30.9679 9.76 31.0319 9.824L30.9839 10.424L31.0079 10.472H30.8639L30.9359 10.64C30.8559 10.864 30.7279 11.104 30.5519 11.36C30.3919 11.6 30.2399 11.84 30.0959 12.08C29.9679 12.304 29.9039 12.512 29.9039 12.704C29.9039 13.28 29.9279 13.856 29.9759 14.432C29.9919 14.72 29.9999 15.008 29.9999 15.296C30.0159 15.584 30.0239 15.872 30.0239 16.16C30.0239 16.368 30.0639 16.592 30.1439 16.832C30.1759 16.944 30.2079 17.056 30.2399 17.168C30.2719 17.28 30.2959 17.392 30.3119 17.504C30.3279 17.568 30.3359 17.632 30.3359 17.696C30.3359 17.744 30.3359 17.792 30.3359 17.84C30.3359 17.904 30.3359 17.968 30.3359 18.032C30.3359 18.08 30.3439 18.136 30.3599 18.2C30.3919 18.456 30.5519 18.664 30.8399 18.824C31.1279 18.968 31.3839 19.04 31.6079 19.04C31.8799 19.04 32.1119 18.952 32.3039 18.776C32.5119 18.6 32.7039 18.424 32.8799 18.248C32.9439 18.184 32.9839 18.16 32.9999 18.176C33.0319 18.192 33.0319 18.24 32.9999 18.32C32.8559 18.688 32.5679 19.016 32.1359 19.304C31.7039 19.576 31.3199 19.712 30.9839 19.712ZM7.17588 4.88L7.22388 4.76H7.24788C7.24788 4.776 7.23988 4.784 7.22388 4.784C7.22388 4.816 7.20788 4.848 7.17588 4.88ZM43.7594 21.2V21.128H43.8314V21.032C43.8314 20.984 43.8074 20.96 43.7594 20.96L43.0154 21.032C42.9674 21 42.9194 20.968 42.8714 20.936C42.8234 20.904 42.7754 20.88 42.7274 20.864C42.6634 20.832 42.6074 20.8 42.5594 20.768C42.5114 20.736 42.4634 20.704 42.4154 20.672L42.4874 20.528H42.3914C42.2794 20.528 42.1754 20.528 42.0794 20.528C41.9834 20.528 41.8794 20.52 41.7674 20.504C41.6554 20.488 41.5514 20.48 41.4554 20.48C41.3594 20.48 41.2554 20.472 41.1434 20.456V20.384H41.2394V20.288C41.2714 20.272 41.3194 20.264 41.3834 20.264C41.4314 20.232 41.4554 20.192 41.4554 20.144L41.3834 20.072L40.6394 20C40.5754 19.92 40.4554 19.816 40.2794 19.688C40.1034 19.576 39.9994 19.48 39.9674 19.4L40.0394 19.256C39.5114 18.904 39.0954 18.4 38.7914 17.744C38.4874 17.072 38.2714 16.432 38.1434 15.824C38.1274 15.792 38.1194 15.752 38.1194 15.704C38.1194 15.656 38.1114 15.616 38.0954 15.584C38.0634 15.488 38.0474 15.408 38.0474 15.344C38.0474 15.28 38.0634 15.248 38.0954 15.248C38.0954 15.264 38.1034 15.272 38.1194 15.272C38.1354 15.288 38.1514 15.296 38.1674 15.296V15.248H38.2634C38.1514 15.056 38.0794 14.832 38.0474 14.576C38.0154 14.32 37.9994 14.08 37.9994 13.856V13.664C37.9994 13.536 38.0074 13.464 38.0234 13.448L38.1674 12.104C38.2634 11.992 38.3514 11.888 38.4314 11.792C38.5274 11.68 38.6154 11.568 38.6954 11.456C38.6954 11.408 38.7674 11.272 38.9114 11.048C39.0554 10.808 39.2234 10.552 39.4154 10.28C39.6074 9.992 39.7914 9.744 39.9674 9.536C40.1594 9.328 40.3034 9.224 40.3994 9.224V9.128C40.3994 9.064 40.4234 9.048 40.4714 9.08C40.5194 9.112 40.5514 9.096 40.5674 9.032C40.6474 9.048 40.6874 9.024 40.6874 8.96C40.6874 8.896 40.6954 8.88 40.7114 8.912H40.7834V8.768C41.0714 8.08 41.5114 7.44 42.1034 6.848C42.6954 6.256 43.3594 5.728 44.0954 5.264C44.8314 4.784 45.5354 4.392 46.2074 4.088C46.2394 3.992 46.2554 3.944 46.2554 3.944C46.2554 3.896 46.2874 3.864 46.3514 3.848C46.4314 3.816 46.5194 3.776 46.6154 3.728C46.7114 3.68 46.8074 3.64 46.9034 3.608L47.4314 3.392C48.0234 3.088 48.5434 2.808 48.9914 2.552C49.4394 2.296 49.8954 2.088 50.3594 1.928C50.8394 1.752 51.3914 1.648 52.0154 1.616C52.1274 1.6 52.2314 1.584 52.3274 1.568C52.4234 1.552 52.5194 1.536 52.6154 1.52C52.7114 1.488 52.8074 1.464 52.9034 1.448C52.9994 1.432 53.1034 1.416 53.2154 1.4C53.4394 1.464 53.6874 1.624 53.9594 1.88C54.2474 2.12 54.4874 2.392 54.6794 2.696C54.8874 2.984 54.9914 3.248 54.9914 3.488C54.9914 3.744 54.8954 3.936 54.7034 4.064C54.6234 4.096 54.4314 4.168 54.1274 4.28C53.8234 4.376 53.5114 4.48 53.1914 4.592C52.8714 4.688 52.6314 4.768 52.4714 4.832C52.3274 4.88 52.1594 4.936 51.9674 5C51.7754 5.064 51.5594 5.136 51.3194 5.216C50.3434 5.536 49.2794 5.976 48.1274 6.536C47.6474 6.776 47.1754 7.048 46.7114 7.352C46.2474 7.656 45.8634 7.984 45.5594 8.336C45.2554 8.688 45.1034 9.056 45.1034 9.44H45.0314C45.0954 8.816 45.2954 8.28 45.6314 7.832C45.9834 7.384 46.4234 7 46.9514 6.68C47.4794 6.344 48.0394 6.056 48.6314 5.816C49.2234 5.576 49.7994 5.352 50.3594 5.144C50.6314 5.032 50.8954 4.912 51.1514 4.784C51.4234 4.656 51.6874 4.528 51.9434 4.4C52.1994 4.272 52.4634 4.152 52.7354 4.04C53.0074 3.912 53.2794 3.808 53.5514 3.728C53.5834 3.712 53.6074 3.704 53.6234 3.704C53.6554 3.704 53.6874 3.696 53.7194 3.68C53.7674 3.648 53.7914 3.608 53.7914 3.56H53.8874V3.488C53.8394 3.472 53.7754 3.448 53.6954 3.416C53.6314 3.384 53.5914 3.336 53.5754 3.272C53.4954 3.288 53.4074 3.304 53.3114 3.32C53.2314 3.336 53.1514 3.352 53.0714 3.368C52.9114 3.416 52.7354 3.44 52.5434 3.44C52.5114 3.44 52.4634 3.44 52.3994 3.44C52.3354 3.424 52.3034 3.392 52.3034 3.344C52.2874 3.328 52.2474 3.32 52.1834 3.32C52.0554 3.32 51.7834 3.368 51.3674 3.464C50.9674 3.56 50.5194 3.68 50.0234 3.824C49.5274 3.952 49.0794 4.08 48.6794 4.208C48.2794 4.336 48.0314 4.432 47.9354 4.496L46.2794 5.576C46.3274 5.576 46.3754 5.584 46.4234 5.6C46.4874 5.616 46.5194 5.656 46.5194 5.72C46.4394 5.72 46.2714 5.76 46.0154 5.84C45.7754 5.92 45.5514 6.016 45.3434 6.128C45.1354 6.224 45.0314 6.312 45.0314 6.392L45.1994 6.32C45.2314 6.32 45.2474 6.344 45.2474 6.392H45.3194V6.464H45.2474V6.536C45.1994 6.552 45.0714 6.648 44.8634 6.824C44.6554 7 44.4074 7.216 44.1194 7.472C43.8474 7.728 43.5754 7.992 43.3034 8.264C43.0314 8.52 42.7994 8.752 42.6074 8.96C42.4314 9.168 42.3434 9.304 42.3434 9.368L42.2714 9.296C42.0954 9.456 41.9274 9.64 41.7674 9.848C41.6234 10.056 41.4954 10.288 41.3834 10.544C41.2714 10.8 41.1594 11.056 41.0474 11.312C40.9514 11.552 40.8474 11.784 40.7354 12.008C40.4954 12.568 40.3034 13.144 40.1594 13.736C40.0154 14.328 39.9434 14.928 39.9434 15.536C39.9434 16.864 40.2874 17.928 40.9754 18.728C41.6794 19.528 42.7274 19.928 44.1194 19.928V19.856C44.1994 19.776 44.3034 19.736 44.4314 19.736C44.4794 19.736 44.5034 19.752 44.5034 19.784H44.5754V19.64H44.6474V19.712L44.9594 19.64L45.3194 19.784V19.712C45.3514 19.68 45.4394 19.632 45.5834 19.568C45.7434 19.488 45.9034 19.424 46.0634 19.376C46.2234 19.312 46.3194 19.296 46.3514 19.328C46.4154 19.28 46.4714 19.232 46.5194 19.184C46.5674 19.136 46.6154 19.088 46.6634 19.04C46.7114 18.976 46.7594 18.92 46.8074 18.872C46.8554 18.824 46.9034 18.776 46.9514 18.728L47.1914 18.656V18.896H47.3354V18.8H47.2634C47.3434 18.768 47.4154 18.72 47.4794 18.656H47.5514C47.5674 18.64 47.7034 18.52 47.9594 18.296C48.2154 18.072 48.5114 17.824 48.8474 17.552C49.1994 17.264 49.5194 17.016 49.8074 16.808C50.0954 16.6 50.2874 16.496 50.3834 16.496L50.3114 16.424C50.4714 16.264 50.7034 16.064 51.0074 15.824C51.3114 15.568 51.5914 15.312 51.8474 15.056C52.1034 14.8 52.2314 14.592 52.2314 14.432H52.3994V14.504C52.3994 14.552 52.3674 14.576 52.3034 14.576L52.0154 15.392L51.7994 15.608L51.5594 15.824C51.4314 15.952 51.3194 16.088 51.2234 16.232C51.1594 16.312 51.0954 16.392 51.0314 16.472C50.9834 16.536 50.9274 16.608 50.8634 16.688C50.5754 17.04 50.2234 17.432 49.8074 17.864C49.3914 18.296 48.9514 18.696 48.4874 19.064C48.0394 19.416 47.5994 19.672 47.1674 19.832L46.8314 19.952C46.7034 20 46.6234 20.064 46.5914 20.144H46.7354C46.6714 20.176 46.5994 20.216 46.5194 20.264C46.4554 20.312 46.3834 20.36 46.3034 20.408C46.2234 20.456 46.1434 20.504 46.0634 20.552C45.9994 20.6 45.9274 20.64 45.8474 20.672V20.6C45.4954 20.68 45.1434 20.768 44.7914 20.864C44.4394 20.96 44.0954 21.072 43.7594 21.2Z" fill="#90AFC5"/>
</svg>
